# Blender v2.83.1 OBJ File: '2x2x0.2xHinged_Door.blend'
# www.blender.org
mtllib Modular_Modern_Doorway_2x2x0.2_Hinged.mtl
o Cube
v 0.100000 2.000000 -0.500000
v 0.100000 0.000000 -0.500000
v 0.100000 2.000000 0.500000
v 0.100000 0.000000 0.500000
v -0.100000 2.000000 -0.500000
v -0.100000 0.000000 -0.500000
v -0.100000 2.000000 0.500000
v -0.100000 0.000000 0.500000
v -0.100000 0.000000 -0.450000
v 0.100000 2.000000 -0.450000
v -0.100000 2.000000 -0.450000
v 0.100000 0.000000 -0.450000
v -0.100000 0.000000 0.452500
v 0.100000 2.000000 0.452500
v -0.100000 2.000000 0.452500
v 0.100000 0.000000 0.452500
v 0.100000 1.950000 -0.500000
v -0.100000 1.950000 0.500000
v 0.100000 1.950000 0.500000
v -0.100000 1.950000 -0.500000
v 0.100000 1.950000 -0.450000
v -0.100000 1.950000 -0.450000
v -0.100000 1.950000 0.452500
v 0.100000 1.950000 0.452500
v -0.100000 0.000000 0.452500
v -0.100000 0.000000 -0.450000
v -0.100000 1.950000 -0.450000
v -0.100000 1.950000 0.452500
vt 0.625000 0.738125
vt 0.875000 0.738125
vt 0.875000 0.750000
vt 0.625000 0.750000
vt 0.618750 0.750000
vt 0.625000 1.000000
vt 0.618750 1.000000
vt 0.618750 0.237500
vt 0.625000 0.237500
vt 0.625000 0.250000
vt 0.618750 0.250000
vt 0.125000 0.738125
vt 0.375000 0.738125
vt 0.375000 0.750000
vt 0.125000 0.750000
vt 0.618750 0.738125
vt 0.625000 0.500000
vt 0.618750 0.500000
vt 0.625000 0.512500
vt 0.618750 0.512500
vt 0.125000 0.500000
vt 0.375000 0.500000
vt 0.375000 0.512500
vt 0.125000 0.512500
vt 0.618750 0.011875
vt 0.625000 0.011875
vt 0.875000 0.500000
vt 0.875000 0.512500
vt 0.618750 0.000000
vt 0.625000 0.000000
vt 0.375000 0.000000
vt 0.375000 0.011875
vt 0.375000 0.250000
vt 0.375000 0.237500
vt 0.375000 1.000000
vt 0.618750 0.512500
vt 0.375000 0.512500
vt 0.375000 0.738125
vt 0.618750 0.738125
vn 0.0000 1.0000 0.0000
vn 0.0000 0.0000 1.0000
vn -1.0000 0.0000 0.0000
vn 0.0000 -1.0000 0.0000
vn 1.0000 0.0000 0.0000
vn 0.0000 0.0000 -1.0000
usemtl Material
s off
f 14/1/1 15/2/1 7/3/1 3/4/1
f 19/5/2 3/4/2 7/6/2 18/7/2
f 22/8/3 11/9/3 5/10/3 20/11/3
f 13/12/4 16/13/4 4/14/4 8/15/4
f 24/16/5 14/1/5 3/4/5 19/5/5
f 20/11/6 5/10/6 1/17/6 17/18/6
f 17/18/5 1/17/5 10/19/5 21/20/5
f 6/21/4 2/22/4 12/23/4 9/24/4
f 23/25/3 15/26/3 11/9/3 22/8/3
f 1/17/1 5/27/1 11/28/1 10/19/1
f 18/29/3 7/30/3 15/26/3 23/25/3
f 21/20/5 10/19/5 14/1/5 24/16/5
f 10/19/1 11/28/1 15/2/1 14/1/1
f 8/31/3 18/29/3 23/25/3 13/32/3
f 2/22/5 17/18/5 21/20/5 12/23/5
f 6/33/6 20/11/6 17/18/6 2/22/6
f 16/13/5 24/16/5 19/5/5 4/14/5
f 9/34/3 22/8/3 20/11/3 6/33/3
f 4/14/2 19/5/2 18/7/2 8/35/2
f 12/23/2 21/20/2 27/36/2 26/37/2
f 24/16/6 16/13/6 25/38/6 28/39/6
f 21/20/4 24/16/4 28/39/4 27/36/4
o Cylinder
v 0.050000 1.780000 -0.470000
v 0.050000 1.870000 -0.470000
v 0.053902 1.780000 -0.469616
v 0.053902 1.870000 -0.469616
v 0.057654 1.780000 -0.468478
v 0.057654 1.870000 -0.468478
v 0.061111 1.780000 -0.466629
v 0.061111 1.870000 -0.466629
v 0.064142 1.780000 -0.464142
v 0.064142 1.870000 -0.464142
v 0.066629 1.780000 -0.461111
v 0.066629 1.870000 -0.461111
v 0.068478 1.780000 -0.457654
v 0.068478 1.870000 -0.457654
v 0.069616 1.780000 -0.453902
v 0.069616 1.870000 -0.453902
v 0.070000 1.780000 -0.450000
v 0.070000 1.870000 -0.450000
v 0.069616 1.780000 -0.446098
v 0.069616 1.870000 -0.446098
v 0.068478 1.780000 -0.442346
v 0.068478 1.870000 -0.442346
v 0.066629 1.780000 -0.438889
v 0.066629 1.870000 -0.438889
v 0.064142 1.780000 -0.435858
v 0.064142 1.870000 -0.435858
v 0.061111 1.780000 -0.433371
v 0.061111 1.870000 -0.433371
v 0.057654 1.780000 -0.431522
v 0.057654 1.870000 -0.431522
v 0.053902 1.780000 -0.430384
v 0.053902 1.870000 -0.430384
v 0.050000 1.780000 -0.430000
v 0.050000 1.870000 -0.430000
v 0.046098 1.780000 -0.430384
v 0.046098 1.870000 -0.430384
v 0.042346 1.780000 -0.431522
v 0.042346 1.870000 -0.431522
v 0.038889 1.780000 -0.433371
v 0.038889 1.870000 -0.433371
v 0.035858 1.780000 -0.435858
v 0.035858 1.870000 -0.435858
v 0.033371 1.780000 -0.438889
v 0.033371 1.870000 -0.438889
v 0.031522 1.780000 -0.442346
v 0.031522 1.870000 -0.442346
v 0.030384 1.780000 -0.446098
v 0.030384 1.870000 -0.446098
v 0.030000 1.780000 -0.450000
v 0.030000 1.870000 -0.450000
v 0.030384 1.780000 -0.453902
v 0.030384 1.870000 -0.453902
v 0.031522 1.780000 -0.457654
v 0.031522 1.870000 -0.457654
v 0.033371 1.780000 -0.461111
v 0.033371 1.870000 -0.461111
v 0.035858 1.780000 -0.464142
v 0.035858 1.870000 -0.464142
v 0.038889 1.780000 -0.466629
v 0.038889 1.870000 -0.466629
v 0.042346 1.780000 -0.468478
v 0.042346 1.870000 -0.468478
v 0.046098 1.780000 -0.469616
v 0.046098 1.870000 -0.469616
vt 1.000000 0.500000
vt 1.000000 1.000000
vt 0.968750 1.000000
vt 0.968750 0.500000
vt 0.937500 1.000000
vt 0.937500 0.500000
vt 0.906250 1.000000
vt 0.906250 0.500000
vt 0.875000 1.000000
vt 0.875000 0.500000
vt 0.843750 1.000000
vt 0.843750 0.500000
vt 0.812500 1.000000
vt 0.812500 0.500000
vt 0.781250 1.000000
vt 0.781250 0.500000
vt 0.750000 1.000000
vt 0.750000 0.500000
vt 0.718750 1.000000
vt 0.718750 0.500000
vt 0.687500 1.000000
vt 0.687500 0.500000
vt 0.656250 1.000000
vt 0.656250 0.500000
vt 0.625000 1.000000
vt 0.625000 0.500000
vt 0.593750 1.000000
vt 0.593750 0.500000
vt 0.562500 1.000000
vt 0.562500 0.500000
vt 0.531250 1.000000
vt 0.531250 0.500000
vt 0.500000 1.000000
vt 0.500000 0.500000
vt 0.468750 1.000000
vt 0.468750 0.500000
vt 0.437500 1.000000
vt 0.437500 0.500000
vt 0.406250 1.000000
vt 0.406250 0.500000
vt 0.375000 1.000000
vt 0.375000 0.500000
vt 0.343750 1.000000
vt 0.343750 0.500000
vt 0.312500 1.000000
vt 0.312500 0.500000
vt 0.281250 1.000000
vt 0.281250 0.500000
vt 0.250000 1.000000
vt 0.250000 0.500000
vt 0.218750 1.000000
vt 0.218750 0.500000
vt 0.187500 1.000000
vt 0.187500 0.500000
vt 0.156250 1.000000
vt 0.156250 0.500000
vt 0.125000 1.000000
vt 0.125000 0.500000
vt 0.093750 1.000000
vt 0.093750 0.500000
vt 0.062500 1.000000
vt 0.062500 0.500000
vt 0.296822 0.485388
vt 0.250000 0.490000
vt 0.203179 0.485389
vt 0.158156 0.471731
vt 0.116663 0.449553
vt 0.080295 0.419706
vt 0.050447 0.383337
vt 0.028269 0.341844
vt 0.014612 0.296822
vt 0.010000 0.250000
vt 0.014611 0.203179
vt 0.028269 0.158156
vt 0.050447 0.116663
vt 0.080294 0.080294
vt 0.116663 0.050447
vt 0.158156 0.028269
vt 0.203178 0.014612
vt 0.250000 0.010000
vt 0.296822 0.014612
vt 0.341844 0.028269
vt 0.383337 0.050447
vt 0.419706 0.080294
vt 0.449553 0.116663
vt 0.471731 0.158156
vt 0.485388 0.203178
vt 0.490000 0.250000
vt 0.485388 0.296822
vt 0.471731 0.341844
vt 0.449553 0.383337
vt 0.419706 0.419706
vt 0.383337 0.449553
vt 0.341844 0.471731
vt 0.031250 1.000000
vt 0.031250 0.500000
vt 0.000000 1.000000
vt 0.000000 0.500000
vt 0.750000 0.490000
vt 0.796822 0.485388
vt 0.841844 0.471731
vt 0.883337 0.449553
vt 0.919706 0.419706
vt 0.949553 0.383337
vt 0.971731 0.341844
vt 0.985388 0.296822
vt 0.990000 0.250000
vt 0.985388 0.203178
vt 0.971731 0.158156
vt 0.949553 0.116663
vt 0.919706 0.080294
vt 0.883337 0.050447
vt 0.841844 0.028269
vt 0.796822 0.014612
vt 0.750000 0.010000
vt 0.703178 0.014612
vt 0.658156 0.028269
vt 0.616663 0.050447
vt 0.580294 0.080294
vt 0.550447 0.116663
vt 0.528269 0.158156
vt 0.514611 0.203179
vt 0.510000 0.250000
vt 0.514612 0.296822
vt 0.528269 0.341844
vt 0.550447 0.383337
vt 0.580295 0.419706
vt 0.616663 0.449553
vt 0.658156 0.471731
vt 0.703179 0.485389
vn 0.0980 0.0000 -0.9952
vn 0.2903 0.0000 -0.9569
vn 0.4714 0.0000 -0.8819
vn 0.6344 0.0000 -0.7730
vn 0.7730 0.0000 -0.6344
vn 0.8819 0.0000 -0.4714
vn 0.9569 0.0000 -0.2903
vn 0.9952 0.0000 -0.0980
vn 0.9952 0.0000 0.0980
vn 0.9569 0.0000 0.2903
vn 0.8819 0.0000 0.4714
vn 0.7730 0.0000 0.6344
vn 0.6344 0.0000 0.7730
vn 0.4714 0.0000 0.8819
vn 0.2903 0.0000 0.9569
vn 0.0980 0.0000 0.9952
vn -0.0980 0.0000 0.9952
vn -0.2903 0.0000 0.9569
vn -0.4714 0.0000 0.8819
vn -0.6344 0.0000 0.7730
vn -0.7730 0.0000 0.6344
vn -0.8819 0.0000 0.4714
vn -0.9569 0.0000 0.2903
vn -0.9952 0.0000 0.0980
vn -0.9952 0.0000 -0.0980
vn -0.9569 0.0000 -0.2903
vn -0.8819 0.0000 -0.4714
vn -0.7730 0.0000 -0.6344
vn -0.6344 0.0000 -0.7730
vn -0.4714 0.0000 -0.8819
vn 0.0000 1.0000 -0.0000
vn -0.2903 0.0000 -0.9569
vn -0.0980 0.0000 -0.9952
vn 0.0000 -1.0000 0.0000
usemtl None
s off
f 29/40/7 30/41/7 32/42/7 31/43/7
f 31/43/8 32/42/8 34/44/8 33/45/8
f 33/45/9 34/44/9 36/46/9 35/47/9
f 35/47/10 36/46/10 38/48/10 37/49/10
f 37/49/11 38/48/11 40/50/11 39/51/11
f 39/51/12 40/50/12 42/52/12 41/53/12
f 41/53/13 42/52/13 44/54/13 43/55/13
f 43/55/14 44/54/14 46/56/14 45/57/14
f 45/57/15 46/56/15 48/58/15 47/59/15
f 47/59/16 48/58/16 50/60/16 49/61/16
f 49/61/17 50/60/17 52/62/17 51/63/17
f 51/63/18 52/62/18 54/64/18 53/65/18
f 53/65/19 54/64/19 56/66/19 55/67/19
f 55/67/20 56/66/20 58/68/20 57/69/20
f 57/69/21 58/68/21 60/70/21 59/71/21
f 59/71/22 60/70/22 62/72/22 61/73/22
f 61/73/23 62/72/23 64/74/23 63/75/23
f 63/75/24 64/74/24 66/76/24 65/77/24
f 65/77/25 66/76/25 68/78/25 67/79/25
f 67/79/26 68/78/26 70/80/26 69/81/26
f 69/81/27 70/80/27 72/82/27 71/83/27
f 71/83/28 72/82/28 74/84/28 73/85/28
f 73/85/29 74/84/29 76/86/29 75/87/29
f 75/87/30 76/86/30 78/88/30 77/89/30
f 77/89/31 78/88/31 80/90/31 79/91/31
f 79/91/32 80/90/32 82/92/32 81/93/32
f 81/93/33 82/92/33 84/94/33 83/95/33
f 83/95/34 84/94/34 86/96/34 85/97/34
f 85/97/35 86/96/35 88/98/35 87/99/35
f 87/99/36 88/98/36 90/100/36 89/101/36
f 32/102/37 30/103/37 92/104/37 90/105/37 88/106/37 86/107/37 84/108/37 82/109/37 80/110/37 78/111/37 76/112/37 74/113/37 72/114/37 70/115/37 68/116/37 66/117/37 64/118/37 62/119/37 60/120/37 58/121/37 56/122/37 54/123/37 52/124/37 50/125/37 48/126/37 46/127/37 44/128/37 42/129/37 40/130/37 38/131/37 36/132/37 34/133/37
f 89/101/38 90/100/38 92/134/38 91/135/38
f 91/135/39 92/134/39 30/136/39 29/137/39
f 29/138/40 31/139/40 33/140/40 35/141/40 37/142/40 39/143/40 41/144/40 43/145/40 45/146/40 47/147/40 49/148/40 51/149/40 53/150/40 55/151/40 57/152/40 59/153/40 61/154/40 63/155/40 65/156/40 67/157/40 69/158/40 71/159/40 73/160/40 75/161/40 77/162/40 79/163/40 81/164/40 83/165/40 85/166/40 87/167/40 89/168/40 91/169/40
o Cylinder.002
v 0.050000 0.580000 -0.470000
v 0.050000 0.670000 -0.470000
v 0.053902 0.580000 -0.469616
v 0.053902 0.670000 -0.469616
v 0.057654 0.580000 -0.468478
v 0.057654 0.670000 -0.468478
v 0.061111 0.580000 -0.466629
v 0.061111 0.670000 -0.466629
v 0.064142 0.580000 -0.464142
v 0.064142 0.670000 -0.464142
v 0.066629 0.580000 -0.461111
v 0.066629 0.670000 -0.461111
v 0.068478 0.580000 -0.457654
v 0.068478 0.670000 -0.457654
v 0.069616 0.580000 -0.453902
v 0.069616 0.670000 -0.453902
v 0.070000 0.580000 -0.450000
v 0.070000 0.670000 -0.450000
v 0.069616 0.580000 -0.446098
v 0.069616 0.670000 -0.446098
v 0.068478 0.580000 -0.442346
v 0.068478 0.670000 -0.442346
v 0.066629 0.580000 -0.438889
v 0.066629 0.670000 -0.438889
v 0.064142 0.580000 -0.435858
v 0.064142 0.670000 -0.435858
v 0.061111 0.580000 -0.433371
v 0.061111 0.670000 -0.433371
v 0.057654 0.580000 -0.431522
v 0.057654 0.670000 -0.431522
v 0.053902 0.580000 -0.430384
v 0.053902 0.670000 -0.430384
v 0.050000 0.580000 -0.430000
v 0.050000 0.670000 -0.430000
v 0.046098 0.580000 -0.430384
v 0.046098 0.670000 -0.430384
v 0.042346 0.580000 -0.431522
v 0.042346 0.670000 -0.431522
v 0.038889 0.580000 -0.433371
v 0.038889 0.670000 -0.433371
v 0.035858 0.580000 -0.435858
v 0.035858 0.670000 -0.435858
v 0.033371 0.580000 -0.438889
v 0.033371 0.670000 -0.438889
v 0.031522 0.580000 -0.442346
v 0.031522 0.670000 -0.442346
v 0.030384 0.580000 -0.446098
v 0.030384 0.670000 -0.446098
v 0.030000 0.580000 -0.450000
v 0.030000 0.670000 -0.450000
v 0.030384 0.580000 -0.453902
v 0.030384 0.670000 -0.453902
v 0.031522 0.580000 -0.457654
v 0.031522 0.670000 -0.457654
v 0.033371 0.580000 -0.461111
v 0.033371 0.670000 -0.461111
v 0.035858 0.580000 -0.464142
v 0.035858 0.670000 -0.464142
v 0.038889 0.580000 -0.466629
v 0.038889 0.670000 -0.466629
v 0.042346 0.580000 -0.468478
v 0.042346 0.670000 -0.468478
v 0.046098 0.580000 -0.469616
v 0.046098 0.670000 -0.469616
vt 1.000000 0.500000
vt 1.000000 1.000000
vt 0.968750 1.000000
vt 0.968750 0.500000
vt 0.937500 1.000000
vt 0.937500 0.500000
vt 0.906250 1.000000
vt 0.906250 0.500000
vt 0.875000 1.000000
vt 0.875000 0.500000
vt 0.843750 1.000000
vt 0.843750 0.500000
vt 0.812500 1.000000
vt 0.812500 0.500000
vt 0.781250 1.000000
vt 0.781250 0.500000
vt 0.750000 1.000000
vt 0.750000 0.500000
vt 0.718750 1.000000
vt 0.718750 0.500000
vt 0.687500 1.000000
vt 0.687500 0.500000
vt 0.656250 1.000000
vt 0.656250 0.500000
vt 0.625000 1.000000
vt 0.625000 0.500000
vt 0.593750 1.000000
vt 0.593750 0.500000
vt 0.562500 1.000000
vt 0.562500 0.500000
vt 0.531250 1.000000
vt 0.531250 0.500000
vt 0.500000 1.000000
vt 0.500000 0.500000
vt 0.468750 1.000000
vt 0.468750 0.500000
vt 0.437500 1.000000
vt 0.437500 0.500000
vt 0.406250 1.000000
vt 0.406250 0.500000
vt 0.375000 1.000000
vt 0.375000 0.500000
vt 0.343750 1.000000
vt 0.343750 0.500000
vt 0.312500 1.000000
vt 0.312500 0.500000
vt 0.281250 1.000000
vt 0.281250 0.500000
vt 0.250000 1.000000
vt 0.250000 0.500000
vt 0.218750 1.000000
vt 0.218750 0.500000
vt 0.187500 1.000000
vt 0.187500 0.500000
vt 0.156250 1.000000
vt 0.156250 0.500000
vt 0.125000 1.000000
vt 0.125000 0.500000
vt 0.093750 1.000000
vt 0.093750 0.500000
vt 0.062500 1.000000
vt 0.062500 0.500000
vt 0.296822 0.485388
vt 0.250000 0.490000
vt 0.203179 0.485389
vt 0.158156 0.471731
vt 0.116663 0.449553
vt 0.080295 0.419706
vt 0.050447 0.383337
vt 0.028269 0.341844
vt 0.014612 0.296822
vt 0.010000 0.250000
vt 0.014611 0.203179
vt 0.028269 0.158156
vt 0.050447 0.116663
vt 0.080294 0.080294
vt 0.116663 0.050447
vt 0.158156 0.028269
vt 0.203178 0.014612
vt 0.250000 0.010000
vt 0.296822 0.014612
vt 0.341844 0.028269
vt 0.383337 0.050447
vt 0.419706 0.080294
vt 0.449553 0.116663
vt 0.471731 0.158156
vt 0.485388 0.203178
vt 0.490000 0.250000
vt 0.485388 0.296822
vt 0.471731 0.341844
vt 0.449553 0.383337
vt 0.419706 0.419706
vt 0.383337 0.449553
vt 0.341844 0.471731
vt 0.031250 1.000000
vt 0.031250 0.500000
vt 0.000000 1.000000
vt 0.000000 0.500000
vt 0.750000 0.490000
vt 0.796822 0.485388
vt 0.841844 0.471731
vt 0.883337 0.449553
vt 0.919706 0.419706
vt 0.949553 0.383337
vt 0.971731 0.341844
vt 0.985388 0.296822
vt 0.990000 0.250000
vt 0.985388 0.203178
vt 0.971731 0.158156
vt 0.949553 0.116663
vt 0.919706 0.080294
vt 0.883337 0.050447
vt 0.841844 0.028269
vt 0.796822 0.014612
vt 0.750000 0.010000
vt 0.703178 0.014612
vt 0.658156 0.028269
vt 0.616663 0.050447
vt 0.580294 0.080294
vt 0.550447 0.116663
vt 0.528269 0.158156
vt 0.514611 0.203179
vt 0.510000 0.250000
vt 0.514612 0.296822
vt 0.528269 0.341844
vt 0.550447 0.383337
vt 0.580295 0.419706
vt 0.616663 0.449553
vt 0.658156 0.471731
vt 0.703179 0.485389
vn 0.0980 0.0000 -0.9952
vn 0.2903 0.0000 -0.9569
vn 0.4714 0.0000 -0.8819
vn 0.6344 0.0000 -0.7730
vn 0.7730 0.0000 -0.6344
vn 0.8819 0.0000 -0.4714
vn 0.9569 0.0000 -0.2903
vn 0.9952 0.0000 -0.0980
vn 0.9952 0.0000 0.0980
vn 0.9569 0.0000 0.2903
vn 0.8819 0.0000 0.4714
vn 0.7730 0.0000 0.6344
vn 0.6344 0.0000 0.7730
vn 0.4714 0.0000 0.8819
vn 0.2903 0.0000 0.9569
vn 0.0980 0.0000 0.9952
vn -0.0980 0.0000 0.9952
vn -0.2903 0.0000 0.9569
vn -0.4714 0.0000 0.8819
vn -0.6344 0.0000 0.7730
vn -0.7730 0.0000 0.6344
vn -0.8819 0.0000 0.4714
vn -0.9569 0.0000 0.2903
vn -0.9952 0.0000 0.0980
vn -0.9952 0.0000 -0.0980
vn -0.9569 0.0000 -0.2903
vn -0.8819 0.0000 -0.4714
vn -0.7730 0.0000 -0.6344
vn -0.6344 0.0000 -0.7730
vn -0.4714 0.0000 -0.8819
vn 0.0000 1.0000 -0.0000
vn -0.2903 0.0000 -0.9569
vn -0.0980 0.0000 -0.9952
vn 0.0000 -1.0000 0.0000
usemtl None
s off
f 93/170/41 94/171/41 96/172/41 95/173/41
f 95/173/42 96/172/42 98/174/42 97/175/42
f 97/175/43 98/174/43 100/176/43 99/177/43
f 99/177/44 100/176/44 102/178/44 101/179/44
f 101/179/45 102/178/45 104/180/45 103/181/45
f 103/181/46 104/180/46 106/182/46 105/183/46
f 105/183/47 106/182/47 108/184/47 107/185/47
f 107/185/48 108/184/48 110/186/48 109/187/48
f 109/187/49 110/186/49 112/188/49 111/189/49
f 111/189/50 112/188/50 114/190/50 113/191/50
f 113/191/51 114/190/51 116/192/51 115/193/51
f 115/193/52 116/192/52 118/194/52 117/195/52
f 117/195/53 118/194/53 120/196/53 119/197/53
f 119/197/54 120/196/54 122/198/54 121/199/54
f 121/199/55 122/198/55 124/200/55 123/201/55
f 123/201/56 124/200/56 126/202/56 125/203/56
f 125/203/57 126/202/57 128/204/57 127/205/57
f 127/205/58 128/204/58 130/206/58 129/207/58
f 129/207/59 130/206/59 132/208/59 131/209/59
f 131/209/60 132/208/60 134/210/60 133/211/60
f 133/211/61 134/210/61 136/212/61 135/213/61
f 135/213/62 136/212/62 138/214/62 137/215/62
f 137/215/63 138/214/63 140/216/63 139/217/63
f 139/217/64 140/216/64 142/218/64 141/219/64
f 141/219/65 142/218/65 144/220/65 143/221/65
f 143/221/66 144/220/66 146/222/66 145/223/66
f 145/223/67 146/222/67 148/224/67 147/225/67
f 147/225/68 148/224/68 150/226/68 149/227/68
f 149/227/69 150/226/69 152/228/69 151/229/69
f 151/229/70 152/228/70 154/230/70 153/231/70
f 96/232/71 94/233/71 156/234/71 154/235/71 152/236/71 150/237/71 148/238/71 146/239/71 144/240/71 142/241/71 140/242/71 138/243/71 136/244/71 134/245/71 132/246/71 130/247/71 128/248/71 126/249/71 124/250/71 122/251/71 120/252/71 118/253/71 116/254/71 114/255/71 112/256/71 110/257/71 108/258/71 106/259/71 104/260/71 102/261/71 100/262/71 98/263/71
f 153/231/72 154/230/72 156/264/72 155/265/72
f 155/265/73 156/264/73 94/266/73 93/267/73
f 93/268/74 95/269/74 97/270/74 99/271/74 101/272/74 103/273/74 105/274/74 107/275/74 109/276/74 111/277/74 113/278/74 115/279/74 117/280/74 119/281/74 121/282/74 123/283/74 125/284/74 127/285/74 129/286/74 131/287/74 133/288/74 135/289/74 137/290/74 139/291/74 141/292/74 143/293/74 145/294/74 147/295/74 149/296/74 151/297/74 153/298/74 155/299/74
