# Blender v2.83.1 OBJ File: ''
# www.blender.org
mtllib Modular_Modern_Doorway_2x2x0.2.mtl
o Cube
v 0.100000 2.000000 -0.500000
v 0.100000 0.000000 -0.500000
v 0.100000 2.000000 0.500000
v 0.100000 0.000000 0.500000
v -0.100000 2.000000 -0.500000
v -0.100000 0.000000 -0.500000
v -0.100000 2.000000 0.500000
v -0.100000 0.000000 0.500000
v -0.100000 0.000000 -0.450000
v 0.100000 2.000000 -0.450000
v -0.100000 2.000000 -0.450000
v 0.100000 0.000000 -0.450000
v -0.100000 0.000000 0.452500
v 0.100000 2.000000 0.452500
v -0.100000 2.000000 0.452500
v 0.100000 0.000000 0.452500
v 0.100000 1.950000 -0.500000
v -0.100000 1.950000 0.500000
v 0.100000 1.950000 0.500000
v -0.100000 1.950000 -0.500000
v 0.100000 1.950000 -0.450000
v -0.100000 1.950000 -0.450000
v -0.100000 1.950000 0.452500
v 0.100000 1.950000 0.452500
v -0.100000 0.000000 0.452500
v -0.100000 0.000000 -0.450000
v -0.100000 1.950000 -0.450000
v -0.100000 1.950000 0.452500
vt 0.625000 0.738125
vt 0.875000 0.738125
vt 0.875000 0.750000
vt 0.625000 0.750000
vt 0.618750 0.750000
vt 0.625000 1.000000
vt 0.618750 1.000000
vt 0.618750 0.237500
vt 0.625000 0.237500
vt 0.625000 0.250000
vt 0.618750 0.250000
vt 0.125000 0.738125
vt 0.375000 0.738125
vt 0.375000 0.750000
vt 0.125000 0.750000
vt 0.618750 0.738125
vt 0.625000 0.500000
vt 0.618750 0.500000
vt 0.625000 0.512500
vt 0.618750 0.512500
vt 0.125000 0.500000
vt 0.375000 0.500000
vt 0.375000 0.512500
vt 0.125000 0.512500
vt 0.618750 0.011875
vt 0.625000 0.011875
vt 0.875000 0.500000
vt 0.875000 0.512500
vt 0.618750 0.000000
vt 0.625000 0.000000
vt 0.375000 0.000000
vt 0.375000 0.011875
vt 0.375000 0.250000
vt 0.375000 0.237500
vt 0.375000 1.000000
vt 0.618750 0.512500
vt 0.375000 0.512500
vt 0.375000 0.738125
vt 0.618750 0.738125
vn 0.0000 1.0000 0.0000
vn 0.0000 0.0000 1.0000
vn -1.0000 0.0000 0.0000
vn 0.0000 -1.0000 0.0000
vn 1.0000 0.0000 0.0000
vn 0.0000 0.0000 -1.0000
usemtl Material
s off
f 14/1/1 15/2/1 7/3/1 3/4/1
f 19/5/2 3/4/2 7/6/2 18/7/2
f 22/8/3 11/9/3 5/10/3 20/11/3
f 13/12/4 16/13/4 4/14/4 8/15/4
f 24/16/5 14/1/5 3/4/5 19/5/5
f 20/11/6 5/10/6 1/17/6 17/18/6
f 17/18/5 1/17/5 10/19/5 21/20/5
f 6/21/4 2/22/4 12/23/4 9/24/4
f 23/25/3 15/26/3 11/9/3 22/8/3
f 1/17/1 5/27/1 11/28/1 10/19/1
f 18/29/3 7/30/3 15/26/3 23/25/3
f 21/20/5 10/19/5 14/1/5 24/16/5
f 10/19/1 11/28/1 15/2/1 14/1/1
f 8/31/3 18/29/3 23/25/3 13/32/3
f 2/22/5 17/18/5 21/20/5 12/23/5
f 6/33/6 20/11/6 17/18/6 2/22/6
f 16/13/5 24/16/5 19/5/5 4/14/5
f 9/34/3 22/8/3 20/11/3 6/33/3
f 4/14/2 19/5/2 18/7/2 8/35/2
f 12/23/2 21/20/2 27/36/2 26/37/2
f 24/16/6 16/13/6 25/38/6 28/39/6
f 21/20/4 24/16/4 28/39/4 27/36/4
